<svg width="29" height="29" viewBox="0 0 29 29" fill="none" xmlns="http://www.w3.org/2000/svg">
<path d="M4.5 21.5C4.5 23.2 5.8 24.5 7.5 24.5H21.5C23.2 24.5 24.5 23.2 24.5 21.5V13.5H4.5V21.5ZM21.5 6.5H19.5V5.5C19.5 4.9 19.1 4.5 18.5 4.5C17.9 4.5 17.5 4.9 17.5 5.5V6.5H11.5V5.5C11.5 4.9 11.1 4.5 10.5 4.5C9.9 4.5 9.5 4.9 9.5 5.5V6.5H7.5C5.8 6.5 4.5 7.8 4.5 9.5V11.5H24.5V9.5C24.5 7.8 23.2 6.5 21.5 6.5Z" fill="url(#paint0_linear_7_93)"/>
<defs>
<linearGradient id="paint0_linear_7_93" x1="4.5" y1="4.5" x2="25" y2="24.5" gradientUnits="userSpaceOnUse">
<stop stop-color="#73351A"/>
<stop offset="1" stop-color="#C96032"/>
</linearGradient>
</defs>
</svg>
