<svg width="29" height="29" viewBox="0 0 29 29" fill="none" xmlns="http://www.w3.org/2000/svg">
<path d="M14.5 9.604C14.5 7.771 13 6.271 11.167 6.271H4.5V18.271H11.208C14.5 18.271 14.5 21.605 14.5 21.605M14.5 9.604C14.5 7.77 16 6.271 17.833 6.271H24.5V18.271H17.833C14.5 18.271 14.5 21.605 14.5 21.605M14.5 9.604V21.605M16.375 22.729C16.5837 22.2969 16.9087 21.9315 17.3136 21.6739C17.7185 21.4164 18.1872 21.2768 18.667 21.271H23.5M12.625 22.729C12.4202 22.2939 12.096 21.926 11.6903 21.6679C11.2845 21.4098 10.8139 21.2721 10.333 21.271H5.5" stroke="#A39074" stroke-width="1.5" stroke-miterlimit="10" stroke-linecap="round" stroke-linejoin="round"/>
</svg>
